<svg xmlns="http://www.w3.org/2000/svg">
<path fill="#555" d="m2 0h26v20h-26c-2.76-.439-1.83-3.39-2-5.32v-12.7c.277-1.26.778-1.64 2-2z"/>
<path fill="#079" d="m88 0h-60v20h60c2.76-.439 1.83-3.39 2-5.32-.0441-4.4.089-8.81-.0682-13.2-.215-.857-1.05-1.5-1.93-1.48z"/>
<path fill="#fff" d="m35.2 14c.188-1.46-.528-3.33.759-4.38 2.59.437 1.14-2.62-.551-.602.154.781-1.44-1.81-1.38.222v4.76zm5.65.182c2.33.187 3.55-2.67.863-1.21-2.16 1.01-3.61-1.47-.635-1.37 2.97.669 3.1-2.21.439-3.13-4.1-1.05-4.78 5.8-.666 5.71zm1.31-3.48c-.782-.261-3.02.562-2.76-.485.496-1.4 2.82-1.07 2.76.485zm4.18 3.3-.0547-4.38c1.02.526 2.73-.962 1.15-.956-1.99.469-1.47-1.71.648-1.58.0729-1.68-2.75-.626-2.95 1.41-1.22.218-.708 1.28.0531 1.16l-.0234 4.35zm5.13.165c2.27.154 3.56-2.5.83-1.19-2.16 1.01-3.62-1.51-.635-1.37 2.93.664 3.1-2.21.439-3.13-4.1-1.05-4.75 5.78-.634 5.69zm1.28-3.47c-.782-.261-3.02.562-2.76-.485.496-1.4 2.82-1.07 2.76.485zm3.81 3.3c.188-1.46-.528-3.33.759-4.38 2.59.438 1.14-2.62-.551-.602.154.782-1.44-1.81-1.38.222v4.76zm5.65.182c2.33.0764 3.36-2.43.869-1.21-2.16 1.01-3.67-1.74-.636-1.37 2.8.736 3.1-2.21.439-3.13-4.1-1.05-4.79 5.8-.672 5.71zm1.31-3.48c-.782-.261-3.02.562-2.76-.485.494-1.4 2.82-1.07 2.76.485zm3.8 3.44c.192-1.48-.536-3.56.8-4.62 2.48-.816 1.79 2.39 1.88 3.85.0122 1.43 1.41.909 1.18-.855.118-3.15-1.06-5.56-3.61-3.54.0554.742-1.56-1.83-1.41.432l.0039 4.73zm8.05-.0345c2.45.0593 2.68-3.22 1.08-1.42-4.23 2.45-3.02-5.77.342-2.38 2.85-1.05-2.88-3.22-3.84-.586-.961 1.84.0502 4.54 2.42 4.39zm6.2.0829c2.3.0654 3.64-2.53.852-1.22-2.16 1.01-3.68-1.89-.635-1.37 2.83.714 3.1-2.21.439-3.13-4.1-1.05-4.77 5.81-.656 5.72zm1.3-3.49c-.782-.261-3.02.562-2.76-.485.496-1.4 2.82-1.07 2.76.485zm-76.5-1.96c.606-.724 2.03-.227 3.02-.324-.22.547-2.02.327-3.02.324zm-1.32.806c.606-.722 1.6-.272 3.02-.323 2.22.0285 1.4.396-.35.318-.89.00125-1.78.00522-2.67.0048zm2.12.807c-.00519-.636 2.61-.397 1.73.008-.575-.0023-1.15-.0074-1.73-.008zm9.1-1.77c-1.82.444-6.02-.572-4.28 2.68 1.5 1.45 3.91-.953.856-.547.0499-1.68.343-1.24 2.88-1.24.8 3.57-3.66 6.08-5.55 2.47-1.97-3.73 5.5-7.86 6.19-3.51.0764.105-.0567.096-.088.149zm2.9 4.85c-6.01-.359-1.88-9.2 2.58-6.13 2.79 1.88.606 6.37-2.58 6.13zm2.08-3.54c-.588-3.97-6.04 1.18-1.82 1.87.951.122 1.92-.915 1.82-1.87z"/>
</svg>
